# xmcd CD database file
#
# Track frame offsets:
#	150
#	22567
#	41422
#	63942
#
# Disc length: 1151 seconds
#
# Revision: 0
# Processed by: cddbd v1.5.1PL0 Copyright (c) Steve Scherf et al.
# Submitted via: CDex 1.40Beta9
#
DISCID=20047d04
DTITLE=Ryu　Siwon - 桜
DYEAR=2005
DGENRE=J-Pop
TTITLE0=桜
TTITLE1=Our Rainbow
TTITLE2=誓い-Ｉ can overcome-
TTITLE3=桜（Instrumental)
EXTD=YEAR: 2005/04/13
EXTT0=
EXTT1=
EXTT2=
EXTT3=
PLAYORDER=
